/vscmnt/brussel_pixiu_data/_data_brussel/112/vsc11236/PredSimResults/SUBJ09mtu3D/weighted-LRposFixed/trackIG/worker_04.mot
version=1
nRows=11
nColumns=50
inDegrees=yes
endheader
                time	         pelvis_tilt	         pelvis_list	     pelvis_rotation	           pelvis_tx	           pelvis_ty	           pelvis_tz	       hip_flexion_r	     hip_adduction_r	      hip_rotation_r	        knee_angle_r	       ankle_angle_r	         mtp_angle_r	       hip_flexion_l	     hip_adduction_l	      hip_rotation_l	        knee_angle_l	       ankle_angle_l	         mtp_angle_l	    lumbar_extension	      lumbar_bending	     lumbar_rotation	 ercspn_r/activation	 intobl_r/activation	 extobl_r/activation	    abd_r/activation	    add_r/activation	hamstrings_r/activation	bifemsh_r/activation	glut_max_r/activation	iliopsoas_r/activation	rect_fem_r/activation	  vasti_r/activation	gastroc_r/activation	 soleus_r/activation	tib_ant_r/activation	 ercspn_l/activation	 intobl_l/activation	 extobl_l/activation	    abd_l/activation	    add_l/activation	hamstrings_l/activation	bifemsh_l/activation	glut_max_l/activation	iliopsoas_l/activation	rect_fem_l/activation	  vasti_l/activation	gastroc_l/activation	 soleus_l/activation	tib_ant_l/activation	
          0.00000000	         -7.85198653	         -4.66480444	          7.98796261	          0.00000000	          0.98239283	         -0.01397843	         31.10961000	          1.27025586	         -5.13912305	         -1.76591037	          6.47099906	          0.21640248	         -9.96443616	         -4.79710695	          6.47522377	         -6.16259384	         11.26971651	         26.42159167	         -0.20981755	          2.83700828	         -3.50746919	          0.09021998	          0.13197458	          0.03289646	          0.01219526	          0.06986733	          0.12340434	          0.20204051	          0.00999999	          0.11366156	          0.00999999	          0.00999999	          0.01000000	          0.00999999	          0.26394753	          0.03637780	          0.00999999	          0.00999999	          0.06057280	          0.01423356	          0.02280495	          0.13900377	          0.05966559	          0.48482216	          0.00999999	          0.00999999	          0.35242391	          0.29147009	          0.01517361	
          0.01317165	         -7.95570021	         -4.58193064	          7.99122239	          0.01799573	          0.98009060	         -0.01360235	         31.34481197	          1.36165948	         -5.00016936	         -3.62671214	          6.02758199	          0.21938903	        -10.27524562	         -4.74217315	          6.06209367	         -7.37224712	         10.68292845	         28.36190080	          0.09140294	          3.14089308	         -3.61329793	          0.07397946	          0.10821780	          0.02697476	          0.00999999	          0.12077027	          0.10657746	          0.16567114	          0.06924829	          0.09320131	          0.00999999	          0.00999999	          0.02230122	          0.01487246	          0.27599970	          0.08027872	          0.00999999	          0.00999999	          0.04966907	          0.04313477	          0.01869983	          0.11398166	          0.04892517	          0.49806683	          0.00999999	          0.00999999	          0.32671605	          0.27517901	          0.01244220	
          0.02634330	         -8.03749716	         -4.49208386	          7.94381655	          0.03646911	          0.97805517	         -0.01315823	         31.37604156	          1.43695871	         -4.83282845	         -5.39804624	          5.55343642	          0.20104718	        -10.46366938	         -4.66678701	          5.62507736	         -8.88761340	          9.93890921	         30.38090362	          0.41883711	          3.44809748	         -3.68957580	          0.06160750	          0.08873749	          0.02211902	          0.06032926	          0.10342363	          0.09549108	          0.13584864	          0.11275928	          0.07642412	          0.00999999	          0.00999999	          0.01828677	          0.01219526	          0.32637571	          0.07664658	          0.00999999	          0.00999999	          0.04072813	          0.03537007	          0.02176069	          0.09346379	          0.04011813	          0.48598811	          0.00999999	          0.01813737	          0.29829706	          0.25505628	          0.01020248	
          0.03951495	         -8.10076163	         -4.39078933	          7.84692937	          0.05509775	          0.97655381	         -0.01261815	         31.22110063	          1.51873454	         -4.69531816	         -6.85433535	          4.93210613	          0.17755834	        -10.43386920	         -4.56204050	          5.17505168	        -10.82127628	          8.97216569	         32.47086065	          0.73882390	          3.75029739	         -3.73233666	          0.07120528	          0.07276383	          0.01813737	          0.11848883	          0.12705094	          0.08115410	          0.11139448	          0.16233280	          0.06266699	          0.00999999	          0.00999999	          0.01499496	          0.00999999	          0.36008160	          0.10459932	          0.00999999	          0.00999999	          0.03339665	          0.04427943	          0.02018827	          0.07663935	          0.03289646	          0.47063386	          0.00999999	          0.01487246	          0.24792471	          0.21308802	          0.00999999	
          0.05268660	         -8.14457166	         -4.28334568	          7.70423639	          0.07360265	          0.97576638	         -0.01199403	         30.97163060	          1.61508180	         -4.58014620	         -8.19793026	          4.46419843	          0.14718572	        -10.10043949	         -4.42911982	          4.71403727	        -13.29022647	          7.78041348	         34.51282974	          1.02611998	          4.05550825	         -3.73854292	          0.06850701	          0.05966559	          0.01487246	          0.15490621	          0.14483466	          0.06701078	          0.09134233	          0.19476011	          0.05138629	          0.00999999	          0.00999999	          0.01229571	          0.00999999	          0.37935384	          0.13436238	          0.00999999	          0.00999999	          0.02738491	          0.05951311	          0.01912496	          0.06284348	          0.02697476	          0.43537423	          0.00999999	          0.01219526	          0.20329572	          0.17472999	          0.00999999	
          0.06585824	         -8.16740529	         -4.17164149	          7.51807408	          0.09178388	          0.97574605	         -0.01130467	         30.67477933	          1.72309156	         -4.46891076	         -9.50108126	          4.19819385	          0.12733748	         -9.41578662	         -4.27070663	          4.23732380	        -16.34947191	          6.37370425	         36.29983328	          1.26430101	          4.36657965	         -3.70634038	          0.06773438	          0.04892517	          0.01219526	          0.16955313	          0.13197458	          0.06007324	          0.07489977	          0.20397525	          0.04213623	          0.00999999	          0.07408631	          0.01008236	          0.00999999	          0.38552254	          0.15215887	          0.00999999	          0.00999999	          0.02245534	          0.08320423	          0.02672578	          0.05153100	          0.02211902	          0.37621242	          0.00999999	          0.00999999	          0.16670040	          0.14327679	          0.00999999	
          0.07902989	         -8.16988801	         -4.04600681	          7.29119818	          0.10953166	          0.97651819	         -0.01058983	         30.28574708	          1.83407342	         -4.33657049	        -10.64861251	          4.04608514	          0.10886527	         -8.37868826	         -4.08313991	          3.73536066	        -19.97242361	          4.81715593	         37.41165761	          1.44609626	          4.67427254	         -3.63528925	          0.05554150	          0.04011814	          0.00999999	          0.16555559	          0.10821780	          0.05313766	          0.06141704	          0.18989809	          0.03455127	          0.00999999	          0.14743848	          0.00999999	          0.00999999	          0.38428376	          0.16181829	          0.00999999	          0.00999999	          0.01841315	          0.09687814	          0.02464412	          0.04549136	          0.01813737	          0.30849032	          0.00999999	          0.00999999	          0.13669261	          0.11748550	          0.00999999	
          0.09220154	         -8.15371359	         -3.89389091	          7.02508582	          0.12682653	          0.97806857	         -0.00988033	         29.74388074	          1.93875223	         -4.15929024	        -11.53381502	          4.02191247	          0.09524727	         -7.02867328	         -3.86608457	          3.20463787	        -24.05888699	          3.13882106	         37.50849949	          1.57209583	          4.96400038	         -3.52588602	          0.04554346	          0.03289646	          0.00999999	          0.15723583	          0.08873748	          0.05073255	          0.05036134	          0.16892807	          0.02833169	          0.00999999	          0.19314613	          0.00999999	          0.00999999	          0.37395246	          0.16649854	          0.00999999	          0.00999999	          0.01509859	          0.10648746	          0.02020792	          0.06357222	          0.01487246	          0.25295889	          0.00999999	          0.00999999	          0.11208654	          0.09633690	          0.00999999	
          0.10537319	         -8.12114116	         -3.70377265	          6.72002107	          0.14369821	          0.98030958	         -0.00920002	         29.01479024	          2.02534055	         -3.92204804	        -12.09688352	          4.11166515	          0.08797914	         -5.42842840	         -3.61784304	          2.66636476	        -28.43655876	          1.21129066	         36.63770444	          1.64789895	          5.22188204	         -3.37814500	          0.03734517	          0.02697476	          0.00999999	          0.15042963	          0.07276382	          0.04823003	          0.04129579	          0.14790161	          0.02323169	          0.00999999	          0.21163639	          0.00999999	          0.00999999	          0.35946211	          0.16526522	          0.00999999	          0.00999999	          0.01238069	          0.11555755	          0.01657029	          0.07558058	          0.01219526	          0.20742369	          0.00999999	          0.00999999	          0.09190981	          0.07899527	          0.02379844	
          0.11854484	         -8.07426661	         -3.46597968	          6.37526081	          0.16015130	          0.98308216	         -0.00856756	         28.11182296	          2.07962685	         -3.61151258	        -12.35807957	          4.29620637	          0.08749078	         -3.63989436	         -3.32951419	          2.14897005	        -32.96631610	         -0.82238449	         34.54849783	          1.67491249	          5.43652824	         -3.19174794	          0.03062265	          0.02211902	          0.00999999	          0.14204883	          0.05966559	          0.04489136	          0.03386212	          0.12127780	          0.01904975	          0.00999999	          0.20475276	          0.00999999	          0.00999999	          0.33745445	          0.16744543	          0.00999999	          0.04706377	          0.01015204	          0.11769757	          0.01358747	          0.06197530	          0.00999999	          0.17008529	          0.00999999	          0.00999999	          0.07536510	          0.06477531	          0.08342541	
          0.13171649	         -8.01450138	         -3.17997032	          5.99536395	          0.17613862	          0.98616699	         -0.00798353	         27.09706549	          2.09279419	         -3.21676799	        -12.41791267	          4.56312337	          0.09604405	         -1.72903158	         -2.99105658	          1.68887775	        -37.54572760	         -2.53026946	         30.89345418	          1.64760786	          5.60156995	         -2.97550602	          0.02511026	          0.01813737	          0.00999999	          0.13828108	          0.04892517	          0.03850834	          0.02776659	          0.10080244	          0.01562060	          0.00999999	          0.18902137	          0.00999999	          0.00999999	          0.31310206	          0.18958291	          0.03440595	          0.09100321	          0.00999999	          0.09651080	          0.01114158	          0.05111666	          0.00999999	          0.13946819	          0.00999999	          0.00999999	          0.06179861	          0.05311509	          0.18535586	
